{"title":"Super 8 *2011* [TS.XviD-miguel] [ENG]","uid":6471501,"size":1506011192,"categoryP":"video","categoryS":"movies","magnet":"?xt=urn:btih:3db53277e345fa7a2cdc0afb10afaef2e05643b3&amp;dn=Super+8+%2A2011%2A+%5BTS.XviD-miguel%5D+%5BENG%5D&amp;tr=udp%3A%2F%2Ftracker.openbittorrent.com%3A80&amp;tr=udp%3A%2F%2Fopen.demonii.com%3A1337&amp;tr=udp%3A%2F%2Ftracker.coppersurfer.tk%3A6969&amp;tr=udp%3A%2F%2Fexodus.desync.com%3A6969","seeders":1,"leechers":0,"uploader":"miguel1983","files":-1,"time":1308155262,"description":" &lt;a href=&quot;http://img204.imageshack.us/img204/2654/supereightver3.jpg&quot; rel=&quot;nofollow&quot; target=&quot;_NEW&quot;&gt;http://img204.imageshack.us/img204/2654/supereightver3.jpg&lt;/a&gt;\n\nCountry.......: USA\nGenre.........: Sci-Fi, Thriller\nDate release..: 09.06.2011 [World]\nDirector......: J.J. Abrams\nWriters.......: J.J. Abrams\nDuration......: 102 min.\nMore..........: http://www.imdb.com/title/tt1650062\nTrailer.......: http://www.imdb.com/video/imdb/vi548707353\nTrailer.......:\n\nPilot :\nAfter witnessing a mysterious train crash, a group of friends in the summer of 1979 begin noticing strange happenings going around in their small town, and begin to investigate into the creepy phenomenon. \n\nCats :\nJoel Courtney   \t ...  \tJoe Lamb\nJessica Tuck \t... \tMrs. Kaznyk\nJoel McKinnon Miller \t... \tMr. Kaznyk\nRyan Lee \t... \tCary\nZach Mills \t... \tPreston\nRiley Griffiths \t... \tCharles\nGabriel Basso \t... \tMartin\nKyle Chandler \t... \tJackson Lamb\nRon Eldard \t... \tLouis Dainard\nAmanda Michalka \t... \tJen Kaznyk (as AJ Michalka)\nAndrew Miller \t... \tKaznyk Twins\nJakob Miller \t... \tKaznyk Twins\nJade Griffiths \t... \tBenji Kaznyk\nBritt Flatmo \t... \tPeg Kaznyk\nElle Fanning \t... \tAlice Dainard \n\nData Technical :\n!!! SAMPLE !!!\nAudio.....: English\nSubtitles.: None\nFormat                           : AVI\nFormat/Info                      : Audio Video Interleave\nFile size                        : 1.40 GiB\nDuration                         : 1h 41mn\nOverall bit rate                 : 1 963 Kbps\nWriting library                  : VirtualDub build 32706/release\nVideo\nID                               : 0\nFormat                           : MPEG-4 Visual\nFormat profile                   : Advanced Simple@L5\nFormat settings, BVOP            : Yes\nFormat settings, QPel            : No\nFormat settings, GMC             : No warppoints\nFormat settings, Matrix          : Default (MPEG)\nMuxing mode                      : Packed bitstream\nCodec ID                         : XVID\nCodec ID/Hint                    : XviD\nDuration                         : 1h 41mn\nBit rate                         : 1 825 Kbps\nWidth                            : 720 pixels\nHeight                           : 304 pixels\nDisplay aspect ratio             : 2.35:1\nFrame rate                       : 23.976 fps\nColor space                      : YUV\nChroma subsampling               : 4:2:0\nBit depth                        : 8 bits\nScan type                        : Progressive\nBits/(Pixel*Frame)               : 0.348\nStream size                      : 1.30 GiB (93%)\nWriting library                  : XviD 61\nAudio\nID                               : 1\nFormat                           : MPEG Audio\nFormat version                   : Version 1\nFormat profile                   : Layer 3\nCodec ID                         : 55\nCodec ID/Hint                    : MP3\nDuration                         : 1h 41mn\nBit rate mode                    : Constant\nBit rate                         : 128 Kbps\nChannel(s)                       : 2 channels\nSampling rate                    : 44.1 KHz\nStream size                      : 93.3 MiB (7%)\nAlignment                        : Split accross interleaves\nInterleave, duration             : 42 ms (1.00 video frame)\n\nScreen : &lt;a href=&quot;\nhttp://img855.imageshack.us/img855/6696/super82011s1.jpg&quot; rel=&quot;nofollow&quot; target=&quot;_NEW&quot;&gt;\nhttp://img855.imageshack.us/img855/6696/super82011s1.jpg&lt;/a&gt; &lt;a href=&quot;\nhttp://img23.imageshack.us/img23/1343/super82011s2.jpg&quot; rel=&quot;nofollow&quot; target=&quot;_NEW&quot;&gt;\nhttp://img23.imageshack.us/img23/1343/super82011s2.jpg&lt;/a&gt; &lt;a href=&quot;\nhttp://img6.imageshack.us/img6/3349/super82011s3.jpg&quot; rel=&quot;nofollow&quot; target=&quot;_NEW&quot;&gt;\nhttp://img6.imageshack.us/img6/3349/super82011s3.jpg&lt;/a&gt; &lt;a href=&quot;\nhttp://img43.imageshack.us/img43/338/super82011s4.jpg&quot; rel=&quot;nofollow&quot; target=&quot;_NEW&quot;&gt;\nhttp://img43.imageshack.us/img43/338/super82011s4.jpg&lt;/a&gt; &lt;a href=&quot;\nhttp://img40.imageshack.us/img40/2639/super82011s5.jpg&quot; rel=&quot;nofollow&quot; target=&quot;_NEW&quot;&gt;\nhttp://img40.imageshack.us/img40/2639/super82011s5.jpg&lt;/a&gt;","torrent":{"xt":"urn:btih:3db53277e345fa7a2cdc0afb10afaef2e05643b3","amp;dn":"Super+8+%2A2011%2A+%5BTS.XviD-miguel%5D+%5BENG%5D","amp;tr":["udp%3A%2F%2Ftracker.openbittorrent.com%3A80","udp%3A%2F%2Fopen.demonii.com%3A1337","udp%3A%2F%2Ftracker.coppersurfer.tk%3A6969","udp%3A%2F%2Fexodus.desync.com%3A6969"],"infoHash":"3db53277e345fa7a2cdc0afb10afaef2e05643b3","infoHashBuffer":{"type":"Buffer","data":[61,181,50,119,227,69,250,122,44,220,10,251,16,175,174,242,224,86,67,179]},"announce":[],"urlList":[]}}